<svg width="1440" height="1024" viewBox="0 0 1440 1024" fill="none" xmlns="http://www.w3.org/2000/svg">
<rect width="1440" height="1024" fill="white"/>
<path d="M853.013 554.185C816.176 569.673 740.001 613.999 728.001 633.999C722.001 645.999 729.35 649.114 744.001 641.998C776.652 626.091 822.281 608.324 870.002 591.999C926.578 573.797 928.056 570.394 928.31 559.117C928.346 557.513 928.158 555.899 927.657 554.375C920.96 534.025 906.058 534.712 853.013 554.185Z" fill="#066FB9"/>
<path d="M944.735 600.45C873.201 611.486 812.295 629.472 757.929 655.224C728.906 669.122 724.001 672.801 724.001 681.385C724.001 692.422 726.454 692.422 758.746 683.02C780.82 676.889 884.237 663.4 946.779 658.903C980.706 656.451 1012.18 652.772 1017.5 650.319C1034.66 643.37 1038.34 618.027 1024.04 603.72C1017.9 597.997 972.94 595.953 944.735 600.45Z" fill="#066FB9"/>
<path d="M587.867 552.84C624.704 568.328 700.88 612.654 712.88 632.654C718.88 644.654 711.531 647.769 696.88 640.653C664.229 624.746 618.599 606.979 570.878 590.653C514.301 572.451 512.823 569.048 512.569 557.772C512.533 556.168 512.72 554.553 513.222 553.029C519.919 532.679 534.821 533.367 587.867 552.84Z" fill="#46AE69"/>
<path d="M496.143 599.104C567.678 610.141 628.585 628.126 682.952 653.879C711.975 667.777 716.88 671.455 716.88 680.04C716.88 691.076 714.427 691.076 682.134 681.675C660.061 675.543 556.642 662.054 494.1 657.557C460.172 655.105 428.696 651.426 423.382 648.973C406.214 642.024 402.535 616.681 416.842 602.374C422.973 596.651 467.938 594.607 496.143 599.104Z" fill="#46AE69"/>
<path d="M564.001 426L718.001 334L870.001 426L794.001 472V520L718.001 528L646.001 520V472L564.001 426V460H570.001V508H556.001V460H564.001V426Z" fill="#3083B5"/>
<path d="M564.001 426L718.001 334L870.001 426L794.001 472M564.001 426L646.001 472V520C646.001 520 689.883 524.876 718.001 528M564.001 426L718.001 424M564.001 426V460M794.001 472V520C794.001 520 747.681 524.876 718.001 528M794.001 472V452L718.001 424M718.001 528C718.001 487.385 718.001 424 718.001 424M564.001 460H570.001V508H556.001V460H564.001Z" stroke="#3083B5" stroke-width="4"/>
<path d="M794.001 455.395V520.199L722.001 527.777V428.868L794.001 455.395Z" fill="#45B0E6" stroke="#45B0E6" stroke-width="4"/>
</svg>
